<svg width="163" height="155" viewBox="0 0 163 155" fill="none" xmlns="http://www.w3.org/2000/svg">
<path d="M76.3076 88.8367C66.1386 109.287 67.3959 142.943 69.4068 147.55" stroke="#FFA6E4" stroke-width="12" stroke-linecap="round"/>
<path d="M153.144 35.7998C146.369 57.7199 124.567 67.1731 120.009 68.9365" stroke="#FFA6E4" stroke-width="8" stroke-linecap="round"/>
<path d="M45.8087 59.9034C37.0245 81.0374 14.4443 88.2479 9.74308 89.5434" stroke="#FFA6E4" stroke-width="8" stroke-linecap="round"/>
<path d="M92.5946 86.8478C92.0833 109.867 107.409 139.534 111.159 142.756" stroke="#FFA6E4" stroke-width="12" stroke-linecap="round"/>
<circle cx="84.3249" cy="59.6664" r="46.1472" fill="#FF70D4"/>
<path d="M67.8296 58.377C68.8231 63.1562 80.5448 63.7556 82.1667 58.4614" stroke="black" stroke-width="2" stroke-linecap="round"/>
<circle cx="153.278" cy="35.4684" r="8.92442" fill="#FFA6E4" stroke="#FFA6E4"/>
<circle cx="10.2934" cy="89.2384" r="8.92442" transform="rotate(5.56102 10.2934 89.2384)" fill="#FFA6E4" stroke="#FFA6E4"/>
<ellipse cx="3.50468" cy="3.64628" rx="3.50468" ry="3.64628" transform="matrix(0.999983 0.00589205 -0.00544332 0.999985 58.2388 43.0925)" fill="black"/>
<ellipse cx="3.50468" cy="3.64628" rx="3.50468" ry="3.64628" transform="matrix(0.999983 0.00589205 -0.00544332 0.999985 85.6384 43.2539)" fill="black"/>
<path d="M58.1188 7.70814C58.0916 4.46581 61.7233 2.5654 64.3873 4.42796L73.9867 11.1397C75.1554 11.9569 76.6648 12.0947 77.9514 11.5018L87.6987 7.01004C90.6636 5.64376 93.9469 8.24192 93.3133 11.453L92.4678 15.7377C92.4167 15.9969 92.3914 16.2608 92.3922 16.5254L92.4074 21.0686C92.4186 24.4349 88.5281 26.2817 85.9074 24.1541L77.5773 17.3915C76.3527 16.3974 74.6655 16.2093 73.265 16.9108L62.9236 22.0909C59.9603 23.5753 56.562 20.9874 57.1889 17.7237L58.0854 13.0565C58.1352 12.797 58.1592 12.533 58.157 12.2684L58.1188 7.70814Z" fill="#FFF8DD"/>
<path d="M108.349 139.994C112.96 137.236 118.845 138.884 121.493 143.675C121.609 143.886 121.529 144.155 121.322 144.279L105.382 153.815C105.175 153.939 104.911 153.876 104.795 153.665C102.147 148.874 103.738 142.753 108.349 139.994Z" fill="#FF00BF"/>
<path d="M68.6309 144C73.9498 144 78.2616 148.48 78.2617 154.007C78.2617 154.25 78.0588 154.442 77.8153 154.442H59.4465C59.203 154.442 59 154.25 59 154.007C59.0001 148.48 63.3119 144 68.6309 144Z" fill="#FF00BF"/>
</svg>
