<svg width="145" height="139" viewBox="0 0 145 139" fill="none" xmlns="http://www.w3.org/2000/svg">
<path d="M68.114 75.4496C56.7044 94.8038 56.8329 127.288 58.7827 131.799" stroke="#A9FFDF" stroke-width="12" stroke-linecap="round"/>
<path d="M85.8268 73C78.7933 94.3376 85.8257 126.051 88.6901 130.045" stroke="#A9FFDF" stroke-width="12" stroke-linecap="round"/>
<path d="M121.5 24C142.5 34.5 152.5 50.2203 115.994 50.2203" stroke="#A9FFDF" stroke-width="8" stroke-linecap="round"/>
<path d="M12.3223 79.2861C16.3891 60.966 27.9907 51.2593 30.4112 49.4016" stroke="#A9FFDF" stroke-width="8" stroke-linecap="round"/>
<circle cx="46" cy="46" r="46" transform="matrix(-1 0 0 1 118.383 0)" fill="#00FFA2"/>
<path d="M72.8091 52.8011C72.6998 50.199 65.5533 48.4168 63.9999 50.9575" stroke="black" stroke-width="2" stroke-linecap="round"/>
<circle cx="9.5" cy="9.5" r="9" transform="matrix(-0.978438 0.206538 0.206538 0.978438 126.59 10)" fill="#A9FFDF" stroke="#A9FFDF"/>
<circle cx="9.5" cy="9.5" r="9" transform="matrix(-0.978438 0.206538 0.206538 0.978438 18.5903 71.3539)" fill="#A9FFDF" stroke="#A9FFDF"/>
<circle cx="4" cy="4" r="4" transform="matrix(-1 0 0 1 94.3833 29)" fill="black"/>
<circle cx="4" cy="4" r="4" transform="matrix(-1 0 0 1 66.3833 29)" fill="black"/>
<path d="M60.1528 128.241C54.5606 128.241 50.027 132.562 50.0269 137.893C50.0269 138.128 50.2237 138.312 50.4587 138.312H69.847C70.082 138.312 70.2788 138.128 70.2788 137.893C70.2786 132.562 65.7451 128.241 60.1528 128.241Z" fill="#4CAF50"/>
<path d="M89.2726 126.277C83.8082 127.466 80.2971 132.653 81.4302 137.861C81.4802 138.091 81.7118 138.229 81.9415 138.179L100.886 134.057C101.116 134.007 101.269 133.784 101.219 133.555C100.086 128.347 94.7369 125.088 89.2726 126.277Z" fill="#4CAF50"/>
</svg>
